# xmcd
#
# Track frame offsets: 
#        150
#        31055
#        42267
#        59442
#        66524
#        84849
#        103090
#        120440
#        136710
#        156400
#        174042
#        191371
#        209048
#        234353
#
# Disc length: 3231 seconds
#
# Revision: 0
# Processed by: cddbd v1.5.2PL0 Copyright (c) Steve Scherf et al.
# Submitted via: ExactAudioCopy v1.0b4
#
DISCID=b40c9d0e
DTITLE=Snowy White and The White Flames - Realistic
DYEAR=2011
DGENRE=Blues Rock
TTITLE0=On The Edge Of Something
TTITLE1=Ongoing ...
TTITLE2=Riding The Blues
TTITLE3=Team Spirit
TTITLE4=Got To Set Me Free
TTITLE5=Whiteflames Blues
TTITLE6=Careful Now
TTITLE7=Finding My Way Home
TTITLE8=Another Story Told
TTITLE9=Towards Higher Ground
TTITLE10=Love Is Not Possession
TTITLE11=Long Way Out (Part 1)
TTITLE12=Long Way Out (Part 2)
TTITLE13=Outro Peace
EXTD=
EXTT0=
EXTT1=
EXTT2=
EXTT3=
EXTT4=
EXTT5=
EXTT6=
EXTT7=
EXTT8=
EXTT9=
EXTT10=
EXTT11=
EXTT12=
EXTT13=
PLAYORDER=
